<?xml version="1.0" encoding="utf-8"?>
<!-- Generator: Adobe Illustrator 23.1.0, SVG Export Plug-In . SVG Version: 6.00 Build 0)  -->
<svg version="1.1" id="Laag_1" xmlns="http://www.w3.org/2000/svg" xmlns:xlink="http://www.w3.org/1999/xlink" x="0px" y="0px"
	 viewBox="0 0 303.2 141.1" style="enable-background:new 0 0 303.2 141.1;" xml:space="preserve">
<style type="text/css">
	.st0{fill:#2E2D2C;}
	.st1{fill:#1DCAD3;}
</style>
<g>
	<g>
		<path class="st0" d="M36.5,49.8l-19-31.3h15.8l10.3,18.2L54,18.5h15.4l-19,31.1v18.9H36.5V49.8z"/>
		<path class="st0" d="M67.4,43.7L67.4,43.7c0-14.5,11.6-26.1,27-26.1s26.9,11.5,26.9,25.9v0.1c0,14.4-11.6,26-27,26
			S67.4,58,67.4,43.7z M107.1,43.7L107.1,43.7c0-7.3-5.2-13.6-12.9-13.6c-7.6,0-12.6,6.1-12.6,13.4v0.1c0,7.1,5.2,13.4,12.8,13.4
			S107.1,50.9,107.1,43.7z"/>
		<path class="st0" d="M127.8,46.6V18.5h14.1v27.8c0,7.2,3.6,10.6,9.2,10.6c5.6,0,9.2-3.3,9.2-10.3V18.5h14.1v27.7
			c0,16.1-9.2,23.2-23.4,23.2C136.7,69.4,127.8,62.2,127.8,46.6z"/>
		<path class="st0" d="M236.9,43.7L236.9,43.7c0-14.7,11.4-26.1,26.9-26.1c8.8,0,15,2.7,20.3,7.3l-8.1,9.8c-3.6-3-7.1-4.7-12.1-4.7
			c-7.2,0-12.8,6.1-12.8,13.7v0.1c0,8.1,5.6,13.9,13.6,13.9c3.4,0,5.9-0.7,8-2.1v-6.1h-9.9V39.3h23v22.5c-5.3,4.4-12.6,7.7-21.7,7.7
			C248.6,69.5,236.9,58.8,236.9,43.7z"/>
	</g>
	<polygon class="st1" points="229.8,42.9 229.8,18.5 216.1,18.5 216.1,25.2 	"/>
	<polygon class="st1" points="216.1,44.9 216.1,44.9 195.5,18.5 182.6,18.5 182.6,23.2 217.7,68.4 217.6,68.4 217.7,68.5 
		229.8,68.5 229.8,62.6 	"/>
	<polygon class="st1" points="182.6,42.9 182.6,68.5 196.3,68.5 196.3,60.6 	"/>
	<path class="st1" d="M17.5,81h13l9.5,26.4L49.4,81h12.7l-17,42.1H34.4L17.5,81z"/>
	<path class="st1" d="M66.4,81h11.6v41.8H66.4V81z"/>
	<path class="st1" d="M82.5,116.5l6.4-7.7c4.1,3.3,8.7,5,13.6,5c3.1,0,4.8-1.1,4.8-2.9v-0.1c0-1.7-1.4-2.7-7-4
		c-8.9-2-15.8-4.5-15.8-13.1v-0.1c0-7.8,6.1-13.4,16.2-13.4c7.1,0,12.7,1.9,17.2,5.6l-5.8,8.2c-3.8-2.7-8-4.1-11.7-4.1
		c-2.8,0-4.2,1.2-4.2,2.7v0.1c0,1.9,1.4,2.7,7.2,4.1c9.6,2.1,15.6,5.2,15.6,13v0.1c0,8.5-6.7,13.6-16.9,13.6
		C94.7,123.5,87.7,121.1,82.5,116.5z"/>
	<path class="st1" d="M124.1,104.4V81h11.8v23.2c0,6,3,8.9,7.7,8.9s7.7-2.7,7.7-8.6V81H163v23.2c0,13.5-7.7,19.4-19.6,19.4
		S124.1,117.5,124.1,104.4z"/>
	<path class="st1" d="M182.7,80.7h11.2l17.8,42.1h-12.4l-3-7.5h-16.1l-3,7.5h-12.2L182.7,80.7z M192.8,106.3l-4.7-11.9l-4.7,11.9
		H192.8z"/>
	<path class="st1" d="M215.7,81h11.6v31.6h20.2v10.1h-31.8V81z"/>
	<path class="st1" d="M249.3,116.5l6.4-7.7c4.1,3.3,8.7,5,13.6,5c3.1,0,4.8-1.1,4.8-2.9v-0.1c0-1.7-1.4-2.7-7-4
		c-8.9-2-15.8-4.5-15.8-13.1v-0.1c0-7.8,6.1-13.4,16.2-13.4c7.1,0,12.7,1.9,17.2,5.6l-5.8,8.2c-3.8-2.7-8-4.1-11.7-4.1
		c-2.8,0-4.2,1.2-4.2,2.7v0.1c0,1.9,1.4,2.7,7.2,4.1c9.6,2.1,15.6,5.2,15.6,13v0.1c0,8.5-6.7,13.6-16.9,13.6
		C261.5,123.5,254.4,121.1,249.3,116.5z"/>
</g>
</svg>
