<?xml version="1.0" encoding="utf-8"?>
<!-- Generator: Adobe Illustrator 23.0.6, SVG Export Plug-In . SVG Version: 6.00 Build 0)  -->
<svg version="1.1" id="Laag_1" xmlns="http://www.w3.org/2000/svg" xmlns:xlink="http://www.w3.org/1999/xlink" x="0px" y="0px"
	 viewBox="0 0 290.6 156.2" style="enable-background:new 0 0 290.6 156.2;" xml:space="preserve">
<style type="text/css">
	.st0{fill:#FFFFFF;}
</style>
<g>
	<path class="st0" d="M30.1,53.8l-19-31.3h15.8l10.3,18.2l10.4-18.2H63L44,53.6v18.9H30.1V53.8z"/>
	<path class="st0" d="M61,47.7v-0.1c0-14.4,11.6-26,27-26s26.9,11.5,26.9,25.9v0.1c0,14.4-11.6,26-27,26S61,62,61,47.7z M100.7,47.7
		v-0.1c0-7.2-5.2-13.5-12.9-13.5c-7.6,0-12.6,6.1-12.6,13.4v0.1C75.2,54.7,80.4,61,88,61C95.6,61,100.7,54.9,100.7,47.7z"/>
	<path class="st0" d="M121.4,50.6V22.5h14.1v27.8c0,7.2,3.6,10.6,9.2,10.6c5.6,0,9.2-3.3,9.2-10.3V22.5H168v27.7
		c0,16.1-9.2,23.2-23.4,23.2C130.3,73.4,121.4,66.2,121.4,50.6z"/>
	<path class="st0" d="M230.5,47.7v-0.1c0-14.6,11.4-26,26.9-26c8.8,0,15,2.7,20.3,7.3l-8.1,9.8c-3.6-3-7.1-4.7-12.1-4.7
		c-7.2,0-12.8,6.1-12.8,13.7v0.1c0,8.1,5.6,13.9,13.6,13.9c3.4,0,5.9-0.7,8-2.1v-6.1h-9.9V43.3h23v22.5c-5.3,4.4-12.6,7.7-21.7,7.7
		C242.2,73.5,230.5,62.8,230.5,47.7z"/>
	<g>
		<path class="st0" d="M11.7,85.3h15l11,30.7l11-30.7h14.8l-19.7,48.9H31.3L11.7,85.3z"/>
		<path class="st0" d="M68.5,85.3H82v48.5H68.5V85.3z"/>
		<path class="st0" d="M87.2,126.6l7.5-8.9c4.8,3.8,10.1,5.8,15.7,5.8c3.6,0,5.5-1.2,5.5-3.3V120c0-2-1.6-3.1-8.2-4.6
			c-10.3-2.4-18.3-5.3-18.3-15.3V100c0-9,7.1-15.5,18.8-15.5c8.3,0,14.7,2.2,20,6.4l-6.7,9.5c-4.4-3.1-9.3-4.8-13.6-4.8
			c-3.3,0-4.9,1.4-4.9,3.1v0.1c0,2.2,1.7,3.2,8.4,4.7c11.2,2.4,18.1,6,18.1,15.1v0.1c0,9.9-7.8,15.8-19.6,15.8
			C101.4,134.7,93.2,131.9,87.2,126.6z"/>
		<path class="st0" d="M135.5,112.5V85.3h13.7v27c0,7,3.5,10.3,8.9,10.3c5.4,0,8.9-3.2,8.9-10V85.3h13.7v26.9
			c0,15.7-8.9,22.5-22.7,22.5C144.2,134.7,135.5,127.7,135.5,112.5z"/>
		<path class="st0" d="M203.6,84.9h13l20.7,48.9h-14.4l-3.5-8.7h-18.7l-3.5,8.7h-14.1L203.6,84.9z M215.4,114.7l-5.4-13.8l-5.5,13.8
			H215.4z"/>
		<path class="st0" d="M242,85.3h13.5V122h23.5v11.8h-37V85.3z"/>
		<polygon class="st0" points="223.4,46.9 223.4,22.5 209.7,22.5 209.7,29.2 		"/>
		<polygon class="st0" points="209.7,48.9 209.7,48.9 189.1,22.5 176.2,22.5 176.2,27.2 211.3,72.4 211.2,72.4 211.3,72.5 
			223.4,72.5 223.4,66.6 		"/>
		<polygon class="st0" points="176.2,46.9 176.2,72.5 189.9,72.5 189.9,64.6 		"/>
	</g>
</g>
</svg>
