<?xml version="1.0" encoding="utf-8"?>
<!-- Generator: Adobe Illustrator 23.0.6, SVG Export Plug-In . SVG Version: 6.00 Build 0)  -->
<svg version="1.1" id="Laag_1" xmlns="http://www.w3.org/2000/svg" xmlns:xlink="http://www.w3.org/1999/xlink" x="0px" y="0px"
	 viewBox="0 0 207.8 201.9" style="enable-background:new 0 0 207.8 201.9;" xml:space="preserve">
<style type="text/css">
	.st0{fill:#020203;}
	.st1{fill:none;stroke:#020203;stroke-width:7;stroke-miterlimit:10;}
	.st2{fill:none;stroke:#000000;stroke-width:5;stroke-linecap:round;stroke-linejoin:round;stroke-miterlimit:10;}
	.st3{fill:none;stroke:#000000;stroke-width:5.9809;stroke-linecap:round;stroke-linejoin:round;stroke-miterlimit:10;}
	.st4{fill:none;stroke:#020203;stroke-width:4;stroke-linecap:round;stroke-linejoin:round;stroke-miterlimit:10;}
	.st5{fill:none;stroke:#000000;stroke-width:4;stroke-linecap:round;stroke-linejoin:round;stroke-miterlimit:10;}
	.st6{fill:none;stroke:#000000;stroke-width:4.0981;stroke-linecap:round;stroke-linejoin:round;stroke-miterlimit:10;}
	.st7{fill:none;stroke:#000000;stroke-width:5.0836;stroke-linecap:round;stroke-linejoin:round;stroke-miterlimit:10;}
</style>
<path class="st4" d="M18.1,75.7c0,10.2,7,18.7,16.5,21.2V169h-11c-3,0-5.5,2.5-5.5,5.5s2.5,5.5,5.5,5.5h164.7c3,0,5.5-2.5,5.5-5.5
	s-2.4-5.5-5.5-5.5h-11V96.9c9.5-2.5,16.5-11,16.5-21.2v-5.5H18.1V75.7z"/>
<path class="st5" d="M128.9,97.7c12.1,0,22-9.8,22-22c0,10.2,7,18.7,16.5,21.2V169H85V97.7c12.1,0,22-9.8,22-22
	C107,87.8,116.8,97.7,128.9,97.7z"/>
<path class="st5" d="M76.4,96.9V169H43.5V96.9C53,94.4,60,85.9,60,75.7C60,85.9,67,94.4,76.4,96.9z"/>
<polygon class="st4" points="171.9,17.7 40.1,17.7 18.1,61.6 193.8,61.6 "/>
<path class="st0" d="M64.5,29.9l-11,22c-0.5,1-1.5,1.5-2.5,1.5c-0.4,0-0.8-0.1-1.2-0.3c-1.4-0.7-1.9-2.3-1.2-3.7l11-22
	c0.7-1.4,2.3-1.9,3.7-1.2C64.6,26.9,65.2,28.6,64.5,29.9z"/>
<path class="st0" d="M86.5,29.9l-11,22c-0.5,1-1.5,1.5-2.5,1.5c-0.4,0-0.8-0.1-1.2-0.3c-1.4-0.7-1.9-2.3-1.2-3.7l11-22
	c0.7-1.4,2.3-1.9,3.7-1.2C86.6,26.9,87.1,28.6,86.5,29.9z"/>
<path class="st0" d="M108.7,50.6c0,1.5-1.2,2.7-2.7,2.7c-1.5,0-2.7-1.2-2.7-2.7v-22c0-1.5,1.2-2.7,2.7-2.7c1.5,0,2.7,1.2,2.7,2.7
	V50.6z"/>
<path class="st0" d="M140.2,53.1c-0.4,0.2-0.9,0.3-1.3,0.3c-1,0-1.9-0.5-2.4-1.4l-12-22c-0.7-1.3-0.2-3,1.1-3.7
	c1.3-0.7,3-0.3,3.7,1.1l12,22C142,50.7,141.6,52.3,140.2,53.1z"/>
<path class="st0" d="M162.1,53.1c-0.4,0.2-0.8,0.3-1.2,0.3c-1,0-2-0.6-2.4-1.5l-11-22c-0.7-1.4-0.1-3,1.2-3.7c1.3-0.7,3-0.1,3.7,1.2
	l11,22C164,50.8,163.5,52.4,162.1,53.1z"/>
<path class="st0" d="M62.7,136.9v-12.7c-1.6-1-2.7-2.6-2.7-4.7c0-3,2.5-5.5,5.5-5.5c3,0,5.5,2.5,5.5,5.5c0,2-1.1,3.7-2.7,4.7v12.7
	c1.6,1,2.7,2.6,2.7,4.7c0,3-2.4,5.5-5.5,5.5c-3,0-5.5-2.5-5.5-5.5C60,139.6,61.1,137.9,62.7,136.9z"/>
<line class="st6" x1="142.7" y1="158.2" x2="157.2" y2="143.6"/>
<line class="st7" x1="151.8" y1="158.9" x2="158" y2="152.7"/>
<path d="M141.7,116.3V111c0-3.4-2.8-6.2-6.4-6.2H118c-3.5,0-6.4,2.8-6.4,6.2v5.3h-6.7c-1.5,0-2.8,1.2-2.8,2.7v5.9
	c0,1.5,1.2,2.7,2.8,2.7h0.8l3,16.3c0.2,1.3,1.4,2.2,2.7,2.2h30.3c1.3,0,2.5-0.9,2.7-2.2l3-16.2h0.8c1.5,0,2.8-1.2,2.8-2.7V119
	c0-1.5-1.2-2.7-2.8-2.7L141.7,116.3L141.7,116.3z M116.8,111c0-0.7,0.6-1.2,1.2-1.2h17.3c0.7,0,1.2,0.6,1.2,1.2v5.3h-19.8V111z
	 M120.6,136.4c0,1-0.9,1.9-1.9,1.9c-1.1,0-1.9-0.8-1.9-1.9V126c0-1,0.9-1.9,1.9-1.9c1.1,0,1.9,0.8,1.9,1.9V136.4z M128.6,136.4
	c0,1-0.9,1.9-1.9,1.9c-1.1,0-1.9-0.8-1.9-1.9V126c0-1,0.9-1.9,1.9-1.9c1.1,0,1.9,0.8,1.9,1.9V136.4z M136.6,136.4
	c0,1-0.9,1.9-1.9,1.9c-1.1,0-1.9-0.8-1.9-1.9V126c0-1,0.9-1.9,1.9-1.9c1.1,0,1.9,0.8,1.9,1.9V136.4z"/>
</svg>
