<?xml version="1.0" encoding="utf-8"?>
<!-- Generator: Adobe Illustrator 23.0.6, SVG Export Plug-In . SVG Version: 6.00 Build 0)  -->
<svg version="1.1" id="Laag_1" xmlns="http://www.w3.org/2000/svg" xmlns:xlink="http://www.w3.org/1999/xlink" x="0px" y="0px"
	 viewBox="0 0 207.8 201.9" style="enable-background:new 0 0 207.8 201.9;" xml:space="preserve">
<style type="text/css">
	.st0{fill:#020203;}
	.st1{fill:none;stroke:#020203;stroke-width:7;stroke-miterlimit:10;}
	.st2{fill:none;stroke:#000000;stroke-width:5;stroke-linecap:round;stroke-linejoin:round;stroke-miterlimit:10;}
	.st3{fill:none;stroke:#000000;stroke-width:5.9809;stroke-linecap:round;stroke-linejoin:round;stroke-miterlimit:10;}
	.st4{fill:none;stroke:#020203;stroke-width:4;stroke-linecap:round;stroke-linejoin:round;stroke-miterlimit:10;}
	.st5{fill:none;stroke:#000000;stroke-width:4;stroke-linecap:round;stroke-linejoin:round;stroke-miterlimit:10;}
	.st6{fill:none;stroke:#000000;stroke-width:4.0981;stroke-linecap:round;stroke-linejoin:round;stroke-miterlimit:10;}
	.st7{fill:none;stroke:#000000;stroke-width:5.0836;stroke-linecap:round;stroke-linejoin:round;stroke-miterlimit:10;}
</style>
<g id="surface1">
	<path class="st0" d="M29.5,158.8h5.9v-5.9h-5.9c-3.3,0-5.9-2.7-5.9-5.9V28.3c0-3.3,2.7-5.9,5.9-5.9H160c3.3,0,5.9,2.7,5.9,5.9v5.9
		h5.9v-5.9c0-6.6-5.3-11.9-11.9-11.9H29.5c-6.6,0-11.9,5.3-11.9,11.9V147C17.6,153.5,22.9,158.8,29.5,158.8z"/>
	<path class="st0" d="M29.5,28.3h5.9v5.9h-5.9V28.3z"/>
	<path class="st0" d="M41.3,28.3h5.9v5.9h-5.9V28.3z"/>
	<path class="st0" d="M53.2,28.3h5.9v5.9h-5.9V28.3z"/>
	<path class="st0" d="M41.3,170.7c0,6.6,5.3,11.9,11.9,11.9h130.5c6.6,0,11.9-5.3,11.9-11.9V52c0-6.6-5.3-11.9-11.9-11.9H53.2
		c-6.6,0-11.9,5.3-11.9,11.9V170.7z M47.3,52c0-3.3,2.7-5.9,5.9-5.9h130.5c3.3,0,5.9,2.7,5.9,5.9v118.7c0,3.3-2.7,5.9-5.9,5.9H53.2
		c-3.3,0-5.9-2.7-5.9-5.9V52z"/>
	<path class="st0" d="M53.2,52h5.9V58h-5.9V52z"/>
	<path class="st0" d="M65.1,52H71V58h-5.9V52z"/>
	<path class="st0" d="M76.9,52h5.9V58h-5.9V52z"/>
	<path class="st0" d="M53.2,63.9h130.5v5.9H53.2V63.9z"/>
	<path class="st0" d="M53.2,78.7h23.7v5.9H53.2V78.7z"/>
	<path class="st0" d="M53.2,90.6H71v5.9H53.2V90.6z"/>
	<path class="st0" d="M118.5,102.5c-11.5,0-20.8,9.3-20.8,20.8S107,144,118.5,144s20.8-9.3,20.8-20.8
		C139.2,111.8,130,102.5,118.5,102.5z M118.5,138.1c-8.2,0-14.8-6.6-14.8-14.8s6.6-14.8,14.8-14.8s14.8,6.6,14.8,14.8
		C133.3,131.4,126.7,138.1,118.5,138.1z"/>
	<path class="st0" d="M166,114.3c0-1.6-1.3-3-3-3h-7.8c-0.6-1.9-1.4-3.8-2.3-5.7l5.5-5.5c1.2-1.2,1.2-3,0-4.2l-12.6-12.6
		c-1.2-1.2-3-1.2-4.2,0l-5.5,5.5c-1.8-0.9-3.7-1.7-5.7-2.3v-7.8c0-1.6-1.3-3-3-3h-17.8c-1.6,0-3,1.3-3,3v7.8
		c-1.9,0.6-3.8,1.4-5.7,2.3l-5.5-5.5c-1.2-1.2-3-1.2-4.2,0L78.6,96c-1.2,1.2-1.2,3,0,4.2l5.5,5.5c-0.2,0.5-0.5,1-0.7,1.5
		c-0.6,1.4-1.2,2.8-1.6,4.2H74c-1.6,0-3,1.3-3,3v17.8c0,1.6,1.3,3,3,3h7.8c0.6,1.9,1.4,3.8,2.3,5.7l-5.5,5.5c-1.2,1.2-1.2,3,0,4.2
		l12.6,12.6c1.2,1.2,3,1.2,4.2,0l5.5-5.5c1.8,0.9,3.7,1.7,5.7,2.3v7.8c0,1.6,1.3,3,3,3h17.8c1.6,0,3-1.3,3-3v-7.8
		c1.9-0.6,3.8-1.4,5.7-2.3l5.5,5.5c1.2,1.2,3,1.2,4.2,0l12.6-12.6c1.2-1.2,1.2-3,0-4.2l-5.5-5.5c0.9-1.8,1.7-3.7,2.3-5.7h7.8
		c1.6,0,3-1.3,3-3V114.3z M160,129.2h-7.1c-1.4,0-2.5,0.9-2.9,2.2c-0.8,2.9-1.9,5.8-3.5,8.4c-0.7,1.2-0.5,2.6,0.5,3.6l5,5l-8.4,8.4
		l-5-5c-1-1-2.4-1.1-3.6-0.5c-2.6,1.5-5.4,2.7-8.4,3.5c-1.3,0.3-2.2,1.5-2.2,2.9v7.1h-11.9v-7.1c0-1.4-0.9-2.5-2.2-2.9
		c-2.9-0.8-5.8-1.9-8.4-3.5c-1.2-0.7-2.6-0.5-3.6,0.5l-5,5l-8.4-8.4l5-5c1-1,1.1-2.4,0.5-3.6c-1.5-2.6-2.7-5.4-3.5-8.4
		c-0.3-1.3-1.5-2.2-2.9-2.2h-7.1v-11.9h7.1c1.4,0,2.5-0.9,2.9-2.2c0.5-1.9,1.1-3.7,1.9-5.4c0.5-1,1-2,1.5-3c0.7-1.2,0.5-2.6-0.5-3.6
		l-5-5l8.4-8.4l5,5c1,1,2.4,1.1,3.6,0.5c2.6-1.5,5.4-2.7,8.4-3.5c1.3-0.3,2.2-1.5,2.2-2.9v-7.1h11.9v7.1c0,1.4,0.9,2.5,2.2,2.9
		c2.9,0.8,5.8,1.9,8.4,3.5c1.2,0.7,2.6,0.5,3.6-0.5l5-5l8.4,8.4l-5,5c-1,1-1.1,2.4-0.5,3.6c1.5,2.6,2.7,5.4,3.5,8.4
		c0.3,1.3,1.5,2.2,2.9,2.2h7.1V129.2z"/>
	<path class="st0" d="M166,164.8h17.8v5.9H166V164.8z"/>
</g>
</svg>
