<?xml version="1.0" encoding="utf-8"?>
<!-- Generator: Adobe Illustrator 23.0.6, SVG Export Plug-In . SVG Version: 6.00 Build 0)  -->
<svg version="1.1" id="Laag_1" xmlns="http://www.w3.org/2000/svg" xmlns:xlink="http://www.w3.org/1999/xlink" x="0px" y="0px"
	 viewBox="0 0 207.8 201.9" style="enable-background:new 0 0 207.8 201.9;" xml:space="preserve">
<style type="text/css">
	.st0{fill:#020203;}
	.st1{fill:none;stroke:#020203;stroke-width:7;stroke-miterlimit:10;}
	.st2{fill:none;stroke:#000000;stroke-width:5;stroke-linecap:round;stroke-linejoin:round;stroke-miterlimit:10;}
	.st3{fill:none;stroke:#000000;stroke-width:5.9809;stroke-linecap:round;stroke-linejoin:round;stroke-miterlimit:10;}
	.st4{fill:none;stroke:#020203;stroke-width:4;stroke-linecap:round;stroke-linejoin:round;stroke-miterlimit:10;}
	.st5{fill:none;stroke:#000000;stroke-width:4;stroke-linecap:round;stroke-linejoin:round;stroke-miterlimit:10;}
	.st6{fill:none;stroke:#000000;stroke-width:4.0981;stroke-linecap:round;stroke-linejoin:round;stroke-miterlimit:10;}
	.st7{fill:none;stroke:#000000;stroke-width:5.0836;stroke-linecap:round;stroke-linejoin:round;stroke-miterlimit:10;}
</style>
<path class="st0" d="M123.9,132.6c-1.6,0-3,1.3-3,3s1.3,3,3,3c1.6,0,3-1.3,3-3S125.5,132.6,123.9,132.6z"/>
<path class="st0" d="M173,15.5H39c-9,0-16.3,7.3-16.3,16.3v99.5c0,9,7.3,16.3,16.3,16.3h50.7v15h-3.3c-4.3,0-8.4,1.7-11.5,4.8
	c-3.1,3.1-4.8,7.2-4.8,11.5c0,1.8,1.5,3.3,3.3,3.3h65.1c1.8,0,3.3-1.5,3.3-3.3c0-9-7.3-16.3-16.3-16.3h-3.3v-15H173
	c9,0,16.3-7.3,16.3-16.3V31.8C189.3,22.8,182,15.5,173,15.5z M39,22h134c5.4,0,9.8,4.4,9.8,9.8v83.3h-15V40.2c0-1.8-1.5-3.3-3.3-3.3
	h-26c-1.8,0-3.3,1.5-3.3,3.3v74.8H119c0-3.4-0.1-6.7-0.3-9.9c-0.6-13.2-1.9-22.1-2.5-26c6.7-4.9,8.5-14.1,4.4-21.2l-11.3-19.5
	c-0.6-1-1.7-1.6-2.8-1.6c-1.2,0-2.2,0.6-2.8,1.6L92.5,57.9C88.6,64.6,90,73.3,96,78.4c-0.7,3.9-2.1,13.1-2.7,26.7
	c-0.1,3.3-0.2,6.6-0.3,9.9H76.7V66.3c0-0.5-0.1-1-0.3-1.4c0,0,0,0,0-0.1l-13-26c-0.6-1.1-1.7-1.8-2.9-1.8c-1.2,0-2.4,0.7-2.9,1.8
	l-13,26c0,0,0,0,0,0.1c-0.2,0.4-0.3,0.9-0.3,1.4v48.8h-15V31.8C29.2,26.4,33.6,22,39,22z M141.8,115.1V43.5h19.5V50h-3.3
	c-1.8,0-3.3,1.5-3.3,3.3s1.5,3.3,3.3,3.3h3.3v9.8h-3.3c-1.8,0-3.3,1.5-3.3,3.3c0,1.8,1.5,3.3,3.3,3.3h3.3v9.8h-3.3
	c-1.8,0-3.3,1.5-3.3,3.3c0,1.8,1.5,3.3,3.3,3.3h3.3v13h-3.3c-1.8,0-3.3,1.5-3.3,3.3s1.5,3.3,3.3,3.3h3.3v6.5H141.8z M106.6,82.3
	c1.2,0,2.4-0.1,3.5-0.4c0.6,3.9,1.5,10.7,2,20.1H100c0.6-9.4,1.5-16.4,2.1-20.4C103.5,82.1,105,82.3,106.6,82.3z M106.6,75.8
	c-7.4,0-12.2-8.1-8.5-14.6l8.5-14.6l8.5,14.6C118.8,67.7,114,75.8,106.6,75.8z M99.7,108.6h12.7c0.1,2.1,0.1,4.3,0.1,6.5h-13
	C99.6,112.9,99.6,110.7,99.7,108.6z M63.7,115.1V69.5h6.5v45.5H63.7z M50.7,115.1V69.5h6.5v45.5H50.7z M52.7,63l7.7-15.5L68.2,63
	H52.7z M134.7,175.6H77.3c0.5-1.4,1.3-2.6,2.3-3.6c1.8-1.8,4.3-2.9,6.9-2.9h39C129.8,169.1,133.4,171.8,134.7,175.6z M115.8,162.6
	H96.3v-15h19.5V162.6z M173,141.1H39c-5.4,0-9.8-4.4-9.8-9.8v-9.8h153.5v9.8C182.8,136.7,178.4,141.1,173,141.1z"/>
<path class="st0" d="M112,132.6H94.1c-1.6,0-3,1.3-3,3s1.3,3,3,3H112c1.6,0,3-1.3,3-3S113.6,132.6,112,132.6z"/>
</svg>
